<svg id="visual" viewBox="0 0 900 450" width="900" height="450" xmlns="http://www.w3.org/2000/svg" xmlns:xlink="http://www.w3.org/1999/xlink" version="1.1"><rect x="0" y="0" width="900" height="450" fill="#020803"></rect><path d="M0 349L25 348C50 347 100 345 150 338C200 331 250 319 300 320.7C350 322.3 400 337.7 450 332.8C500 328 550 303 600 300C650 297 700 316 750 319.8C800 323.7 850 312.3 875 306.7L900 301L900 451L875 451C850 451 800 451 750 451C700 451 650 451 600 451C550 451 500 451 450 451C400 451 350 451 300 451C250 451 200 451 150 451C100 451 50 451 25 451L0 451Z" fill="#051a0c" stroke-linecap="round" stroke-linejoin="miter"></path></svg>