<svg id="visual" viewBox="0 0 900 600" width="900" height="600" xmlns="http://www.w3.org/2000/svg" xmlns:xlink="http://www.w3.org/1999/xlink" version="1.1"><rect x="0" y="0" width="900" height="600" fill="#f7fdf8"></rect><path d="M0 442L21.5 446.5C43 451 86 460 128.8 455.5C171.7 451 214.3 433 257.2 432.5C300 432 343 449 385.8 456.2C428.7 463.3 471.3 460.7 514.2 450.2C557 439.7 600 421.3 642.8 428C685.7 434.7 728.3 466.3 771.2 469.2C814 472 857 446 878.5 433L900 420L900 601L878.5 601C857 601 814 601 771.2 601C728.3 601 685.7 601 642.8 601C600 601 557 601 514.2 601C471.3 601 428.7 601 385.8 601C343 601 300 601 257.2 601C214.3 601 171.7 601 128.8 601C86 601 43 601 21.5 601L0 601Z" fill="#e5faec" stroke-linecap="round" stroke-linejoin="miter"></path></svg>